<svg xmlns="http://www.w3.org/2000/svg" xmlns:xlink="http://www.w3.org/1999/xlink" xmlns:sketch="http://www.bohemiancoding.com/sketch/ns" viewBox="0 0 56 38" version="1.1" x="0px" y="0px"><title>224 - Couch (Solid)</title><desc>Created with Sketch.</desc><g stroke="none" stroke-width="1" fill="none" fill-rule="evenodd" sketch:type="MSPage"><g sketch:type="MSLayerGroup" fill="#000000"><path d="M56,23.568 C56,23.462 55.966,23.366 55.915,23.281 C55.841,23.158 55.731,23.069 55.604,23.027 C55.5,23.123 55.391,23.208 55.284,23.297 C55.212,23.357 55.143,23.421 55.07,23.478 C55.041,23.5 55.011,23.518 54.982,23.539 C53.712,24.486 52.183,25 50.567,25 L5.433,25 C3.811,25 2.277,24.482 1.004,23.529 C0.98,23.511 0.954,23.496 0.93,23.478 C0.857,23.421 0.788,23.357 0.716,23.297 C0.609,23.208 0.5,23.123 0.396,23.027 C0.269,23.069 0.159,23.158 0.085,23.281 C0.034,23.366 0,23.462 0,23.568 C0,26.563 2.437,29 5.433,29 L50.567,29 C53.563,29 56,26.563 56,23.568" sketch:type="MSShapeGroup"></path><path d="M6,33 L50,33 L50,31 L6,31 L6,33 Z" sketch:type="MSShapeGroup"></path><path d="M8,38 L11,38 L11.667,35 L8,35 L8,38" sketch:type="MSShapeGroup"></path><path d="M49,38 L49,35 L45.333,35 L46,38 L49,38" sketch:type="MSShapeGroup"></path><path d="M50.662,14.244 C50.641,14.249 50.621,14.255 50.6,14.261 C48.571,14.856 46.281,16.307 44.889,17.884 C44.885,17.889 44.881,17.894 44.876,17.899 C44.743,18.051 44.618,18.204 44.502,18.357 C44.46,18.413 44.426,18.469 44.386,18.524 C44.312,18.629 44.236,18.734 44.171,18.839 C44.071,19.001 43.981,19.164 43.905,19.326 C43.866,19.409 43.838,19.479 43.818,19.54 C43.814,19.552 43.813,19.56 43.809,19.571 C43.772,19.691 43.767,19.759 43.768,19.787 C43.769,19.791 43.773,19.795 43.773,19.8 C43.773,19.799 43.774,19.799 43.774,19.799 C43.794,19.799 44.066,19.997 45.023,19.997 C45.602,19.997 46.279,19.923 46.995,19.8 C47.002,19.798 47.009,19.797 47.016,19.796 C47.363,19.736 47.718,19.663 48.076,19.581 C48.106,19.574 48.136,19.567 48.165,19.56 C48.504,19.481 48.845,19.395 49.181,19.301 C49.236,19.286 49.289,19.27 49.344,19.254 C49.63,19.173 49.912,19.087 50.188,18.998 C50.257,18.976 50.326,18.954 50.394,18.932 C50.688,18.833 50.973,18.732 51.245,18.63 C51.284,18.615 51.325,18.6 51.364,18.585 C51.99,18.344 52.542,18.094 52.957,17.856 L52.958,17.856 C53.101,17.773 53.23,17.692 53.326,17.617 C53.806,17.242 54.07,16.423 53.984,15.581 C53.914,14.888 53.61,14.329 53.193,14.122 C53.06,14.056 52.931,14.015 52.811,14.001 C52.784,13.999 52.766,13.998 52.742,13.996 C52.721,13.996 52.7,13.996 52.679,13.994 C52.524,13.98 52.362,13.98 52.198,13.985 C52.134,13.988 52.068,13.992 52.003,13.997 C51.894,14.004 51.783,14.016 51.67,14.031 C51.563,14.045 51.455,14.062 51.345,14.083 C51.276,14.096 51.207,14.11 51.137,14.125 C50.981,14.16 50.823,14.198 50.662,14.244" sketch:type="MSShapeGroup"></path><path d="M1.18,21.084 C1.3,21.137 1.41,21.213 1.502,21.31 C2.541,22.4 3.937,23 5.433,23 L50.567,23 C52.063,23 53.459,22.4 54.498,21.31 C54.59,21.213 54.7,21.137 54.82,21.084 C54.438,20.607 53.973,20.193 53.441,19.863 C53.419,19.874 53.39,19.885 53.367,19.896 C53.174,19.99 52.966,20.083 52.75,20.176 C52.618,20.233 52.483,20.289 52.343,20.346 C52.225,20.393 52.103,20.439 51.981,20.485 C51.719,20.585 51.45,20.683 51.169,20.778 C51.073,20.811 50.977,20.843 50.879,20.875 C50.589,20.97 50.296,21.059 49.995,21.146 C49.866,21.183 49.738,21.221 49.607,21.257 C49.438,21.303 49.27,21.347 49.1,21.39 C48.888,21.443 48.676,21.493 48.465,21.541 C48.318,21.574 48.173,21.606 48.027,21.636 C47.759,21.691 47.495,21.74 47.234,21.784 C47.163,21.796 47.091,21.809 47.02,21.82 C46.687,21.873 46.363,21.914 46.049,21.943 C46.023,21.946 45.997,21.948 45.971,21.95 C45.637,21.98 45.313,22 45.014,22 C44.972,22 44.94,21.993 44.899,21.992 C44.631,21.988 44.388,21.97 44.163,21.941 C44.061,21.928 43.961,21.914 43.866,21.896 C43.664,21.859 43.483,21.811 43.318,21.755 C43.229,21.726 43.142,21.694 43.06,21.658 C42.872,21.576 42.706,21.484 42.567,21.382 C42.535,21.357 42.505,21.33 42.475,21.304 C42.359,21.207 42.256,21.106 42.174,21 L13.826,21 C13.744,21.106 13.641,21.207 13.526,21.303 C13.495,21.33 13.466,21.357 13.433,21.382 C13.294,21.484 13.128,21.576 12.94,21.658 C12.858,21.693 12.771,21.726 12.682,21.755 C12.517,21.811 12.336,21.859 12.134,21.896 C12.039,21.914 11.939,21.928 11.837,21.941 C11.612,21.97 11.369,21.988 11.101,21.992 C11.06,21.993 11.028,22 10.986,22 C10.688,22 10.365,21.98 10.032,21.95 C10.004,21.948 9.976,21.946 9.948,21.943 C9.636,21.914 9.315,21.873 8.984,21.821 C8.909,21.81 8.832,21.796 8.756,21.783 C8.502,21.74 8.246,21.692 7.987,21.639 C7.827,21.606 7.669,21.571 7.508,21.535 C7.308,21.49 7.109,21.442 6.908,21.392 C6.733,21.348 6.56,21.303 6.386,21.255 C6.274,21.225 6.163,21.192 6.052,21.16 C5.733,21.068 5.422,20.973 5.115,20.873 C5.021,20.842 4.929,20.812 4.837,20.78 C4.551,20.683 4.277,20.584 4.01,20.482 C3.892,20.437 3.773,20.392 3.659,20.346 C3.518,20.289 3.382,20.233 3.248,20.175 C3.033,20.083 2.825,19.99 2.634,19.897 C2.61,19.885 2.582,19.874 2.559,19.863 C2.027,20.193 1.562,20.607 1.18,21.084" sketch:type="MSShapeGroup"></path><path d="M3.042,17.856 L3.043,17.856 C3.458,18.094 4.01,18.344 4.637,18.585 C4.675,18.6 4.716,18.615 4.755,18.63 C5.027,18.732 5.311,18.833 5.605,18.931 C5.674,18.954 5.745,18.976 5.815,18.999 C6.088,19.087 6.368,19.172 6.651,19.253 C6.708,19.269 6.764,19.286 6.821,19.302 C7.155,19.395 7.492,19.48 7.828,19.559 C7.861,19.566 7.895,19.575 7.929,19.583 C8.284,19.663 8.637,19.736 8.98,19.795 C8.99,19.797 8.999,19.799 9.008,19.8 C9.724,19.924 10.399,19.997 10.977,19.997 C11.871,19.997 12.167,19.824 12.23,19.778 C12.232,19.73 12.219,19.598 12.102,19.343 C12.099,19.336 12.098,19.332 12.095,19.326 C12.021,19.168 11.934,19.009 11.836,18.851 C11.821,18.825 11.802,18.801 11.786,18.775 C11.7,18.641 11.61,18.506 11.508,18.371 C11.492,18.349 11.473,18.328 11.457,18.306 C11.35,18.167 11.239,18.029 11.118,17.892 C11.105,17.877 11.091,17.863 11.078,17.848 C10.948,17.703 10.812,17.559 10.668,17.416 C10.665,17.413 10.661,17.41 10.658,17.406 C9.878,16.636 8.905,15.916 7.881,15.336 C7.869,15.329 7.856,15.322 7.843,15.315 C7.661,15.213 7.478,15.116 7.294,15.023 C7.25,15.001 7.208,14.98 7.165,14.959 C7.015,14.886 6.865,14.817 6.716,14.75 C6.635,14.715 6.555,14.681 6.474,14.647 C6.366,14.602 6.258,14.559 6.15,14.518 C6.029,14.473 5.909,14.429 5.79,14.389 C5.725,14.367 5.661,14.346 5.597,14.326 C5.441,14.277 5.286,14.231 5.132,14.192 C5.106,14.186 5.079,14.179 5.053,14.173 C4.677,14.081 4.31,14.019 3.962,13.996 C3.96,13.995 3.959,13.995 3.957,13.995 C3.851,13.987 3.742,13.976 3.64,13.976 C3.509,13.976 3.38,13.982 3.255,13.995 C3.069,14.015 2.94,14.056 2.807,14.122 C2.39,14.329 2.086,14.888 2.016,15.581 C1.93,16.423 2.194,17.242 2.674,17.617 C2.77,17.692 2.899,17.773 3.042,17.856" sketch:type="MSShapeGroup"></path><path d="M18.396,12 C17.843,12 17.396,11.552 17.396,11 C17.396,9.346 16.05,8 14.396,8 C11.004,8 7.797,9.607 5.723,12.275 C8.369,12.976 11.246,14.836 12.924,16.943 C12.953,16.979 12.981,17.015 13.009,17.051 C13.1,17.168 13.188,17.286 13.271,17.404 C13.334,17.494 13.392,17.583 13.451,17.674 C13.504,17.757 13.56,17.84 13.61,17.924 C13.718,18.108 13.819,18.292 13.905,18.475 C13.986,18.646 14.045,18.807 14.094,18.961 C14.098,18.974 14.105,18.987 14.108,19 L41.892,19 C41.895,18.987 41.903,18.974 41.906,18.961 C41.954,18.81 42.013,18.652 42.091,18.484 C42.093,18.481 42.093,18.478 42.095,18.475 C42.189,18.274 42.299,18.074 42.419,17.875 C42.457,17.812 42.5,17.75 42.54,17.687 C42.627,17.551 42.717,17.416 42.815,17.281 C42.869,17.207 42.925,17.134 42.982,17.06 C43.077,16.937 43.175,16.815 43.278,16.694 C43.342,16.619 43.406,16.544 43.472,16.469 C43.582,16.347 43.697,16.227 43.814,16.107 C43.881,16.039 43.944,15.971 44.012,15.904 C44.181,15.739 44.356,15.577 44.537,15.418 C44.599,15.364 44.664,15.311 44.727,15.257 C44.884,15.125 45.042,14.994 45.207,14.866 C45.294,14.798 45.385,14.733 45.474,14.666 C45.606,14.568 45.738,14.472 45.873,14.378 C45.97,14.311 46.068,14.245 46.166,14.18 C46.302,14.09 46.439,14.003 46.577,13.917 C46.675,13.857 46.772,13.796 46.871,13.738 C47.025,13.647 47.181,13.561 47.338,13.476 C47.422,13.43 47.505,13.382 47.59,13.338 C47.83,13.213 48.071,13.095 48.313,12.985 C48.357,12.965 48.401,12.949 48.445,12.929 C48.648,12.84 48.852,12.754 49.055,12.676 C49.143,12.643 49.23,12.613 49.317,12.582 C49.478,12.524 49.637,12.469 49.797,12.419 C49.895,12.388 49.992,12.36 50.089,12.333 C50.238,12.29 50.385,12.252 50.533,12.217 C50.633,12.193 50.734,12.169 50.833,12.149 C50.871,12.141 50.91,12.13 50.947,12.123 C48.87,9.546 45.722,8 42.396,8 C40.741,8 39.396,9.346 39.396,11 C39.396,11.552 38.948,12 38.396,12 C37.843,12 37.396,11.552 37.396,11 C37.396,8.917 38.677,7.132 40.492,6.381 C38.564,2.58 33.768,0 28.396,0 C23.024,0 18.227,2.58 16.299,6.381 C18.113,7.131 19.396,8.917 19.396,11 C19.396,11.552 18.948,12 18.396,12" sketch:type="MSShapeGroup"></path></g></g></svg>